G04 EAGLE Gerber RS-274X export*
G75*
%MOMM*%
%FSLAX34Y34*%
%LPD*%
%INTop Copper*%
%IPPOS*%
%AMOC8*
5,1,8,0,0,1.08239X$1,22.5*%
G01*
G04 Define Apertures*
%ADD10P,1.79244X8X22.5*%
%ADD11P,1.79244X8X202.5*%
%ADD12R,1.440000X1.440000*%
%ADD13C,1.440000*%
%ADD14R,1.031200X1.420200*%
%ADD15C,1.621000*%
%ADD16C,1.452800*%
%ADD17C,0.600000*%
%ADD18C,1.500000*%
G36*
X162621Y470368D02*
X161649Y470154D01*
X160671Y470337D01*
X159842Y470886D01*
X89996Y540732D01*
X89494Y541452D01*
X89265Y542420D01*
X89432Y543401D01*
X89968Y544239D01*
X90788Y544802D01*
X91763Y545000D01*
X182960Y545000D01*
X183843Y544839D01*
X184685Y544310D01*
X185254Y543493D01*
X185460Y542520D01*
X185270Y541543D01*
X184500Y539685D01*
X184500Y534315D01*
X186555Y529353D01*
X190353Y525555D01*
X195315Y523500D01*
X200685Y523500D01*
X205647Y525555D01*
X207360Y527268D01*
X208152Y527802D01*
X209127Y528000D01*
X220237Y528000D01*
X221175Y527817D01*
X222004Y527268D01*
X232902Y516370D01*
X234918Y515535D01*
X235672Y515048D01*
X236248Y514237D01*
X236461Y513265D01*
X236279Y512287D01*
X235730Y511457D01*
X230504Y506232D01*
X229712Y505698D01*
X228737Y505500D01*
X226315Y505500D01*
X221353Y503445D01*
X217555Y499647D01*
X215500Y494685D01*
X215500Y489315D01*
X217473Y484550D01*
X217662Y483693D01*
X217503Y482711D01*
X216973Y481869D01*
X216157Y481299D01*
X215184Y481094D01*
X214207Y481284D01*
X213685Y481500D01*
X208315Y481500D01*
X203353Y479445D01*
X201640Y477732D01*
X200848Y477198D01*
X199873Y477000D01*
X188127Y477000D01*
X187189Y477183D01*
X186360Y477732D01*
X184647Y479445D01*
X179685Y481500D01*
X174315Y481500D01*
X169353Y479445D01*
X165555Y475647D01*
X163919Y471697D01*
X163433Y470943D01*
X162621Y470368D01*
G37*
G36*
X128808Y178575D02*
X127836Y178362D01*
X126858Y178544D01*
X126028Y179094D01*
X123890Y181232D01*
X123372Y181988D01*
X123158Y182960D01*
X123340Y183938D01*
X123890Y184768D01*
X127309Y188187D01*
X129328Y193062D01*
X129328Y198338D01*
X127309Y203213D01*
X123318Y207204D01*
X123222Y207266D01*
X122647Y208078D01*
X122433Y209049D01*
X122615Y210028D01*
X123165Y210857D01*
X126461Y214153D01*
X128328Y218661D01*
X128328Y220338D01*
X89272Y220338D01*
X89272Y218661D01*
X89936Y217057D01*
X90125Y216180D01*
X89959Y215199D01*
X89422Y214361D01*
X88602Y213798D01*
X87627Y213600D01*
X67810Y213600D01*
X64502Y212230D01*
X62068Y209796D01*
X61348Y209294D01*
X60380Y209065D01*
X59399Y209232D01*
X58561Y209768D01*
X57998Y210588D01*
X57800Y211563D01*
X57800Y300295D01*
X57039Y302132D01*
X55632Y303539D01*
X53795Y304300D01*
X21114Y304300D01*
X20269Y304447D01*
X19418Y304963D01*
X18836Y305770D01*
X18615Y306740D01*
X18789Y307720D01*
X19332Y308554D01*
X20157Y309110D01*
X23647Y310555D01*
X27445Y314353D01*
X29500Y319315D01*
X29500Y324685D01*
X28814Y326342D01*
X28625Y327219D01*
X28791Y328200D01*
X29328Y329038D01*
X30148Y329601D01*
X31123Y329799D01*
X40944Y329799D01*
X43150Y330712D01*
X44838Y332400D01*
X45458Y333898D01*
X45986Y334695D01*
X46811Y335251D01*
X47043Y335348D01*
X47920Y335537D01*
X48901Y335370D01*
X49739Y334834D01*
X50302Y334013D01*
X50390Y333581D01*
X52555Y328353D01*
X56353Y324555D01*
X61315Y322500D01*
X66685Y322500D01*
X71647Y324555D01*
X75445Y328353D01*
X77500Y333315D01*
X77500Y338685D01*
X77235Y339325D01*
X77045Y340242D01*
X77228Y341220D01*
X77777Y342049D01*
X84004Y348276D01*
X84724Y348778D01*
X85692Y349007D01*
X86673Y348840D01*
X87511Y348304D01*
X88074Y347484D01*
X88272Y346509D01*
X88272Y345462D01*
X90291Y340587D01*
X93710Y337168D01*
X94229Y336412D01*
X94442Y335440D01*
X94260Y334462D01*
X93710Y333632D01*
X90291Y330213D01*
X88272Y325338D01*
X88272Y320062D01*
X90291Y315187D01*
X93710Y311768D01*
X94229Y311012D01*
X94442Y310040D01*
X94260Y309062D01*
X93710Y308232D01*
X90291Y304813D01*
X88272Y299938D01*
X88272Y294662D01*
X90291Y289787D01*
X93710Y286368D01*
X94229Y285612D01*
X94442Y284640D01*
X94260Y283662D01*
X93710Y282832D01*
X90291Y279413D01*
X88272Y274538D01*
X88272Y269262D01*
X90291Y264387D01*
X93710Y260968D01*
X94229Y260212D01*
X94442Y259240D01*
X94260Y258262D01*
X93710Y257432D01*
X90291Y254013D01*
X88272Y249138D01*
X88272Y243862D01*
X90291Y238987D01*
X94282Y234996D01*
X94378Y234934D01*
X94953Y234122D01*
X95167Y233151D01*
X94985Y232172D01*
X94435Y231343D01*
X91139Y228047D01*
X89272Y223539D01*
X89272Y221862D01*
X128328Y221862D01*
X128328Y223539D01*
X126461Y228047D01*
X123165Y231343D01*
X122655Y232081D01*
X122433Y233051D01*
X122608Y234030D01*
X123151Y234864D01*
X123260Y234938D01*
X123429Y235107D01*
X124185Y235626D01*
X125157Y235839D01*
X126135Y235657D01*
X126965Y235107D01*
X128254Y233819D01*
X141968Y220104D01*
X142502Y219312D01*
X142700Y218337D01*
X142700Y215915D01*
X144755Y210953D01*
X148553Y207155D01*
X153515Y205100D01*
X158885Y205100D01*
X163847Y207155D01*
X167645Y210953D01*
X169700Y215915D01*
X169700Y221285D01*
X167645Y226247D01*
X163847Y230045D01*
X158885Y232100D01*
X156463Y232100D01*
X155525Y232283D01*
X154696Y232832D01*
X142732Y244796D01*
X142198Y245588D01*
X142000Y246563D01*
X142000Y253537D01*
X142154Y254401D01*
X142677Y255247D01*
X143488Y255823D01*
X144460Y256036D01*
X145438Y255854D01*
X146268Y255304D01*
X181268Y220304D01*
X181802Y219512D01*
X182000Y218537D01*
X182000Y216115D01*
X184055Y211153D01*
X187853Y207355D01*
X192815Y205300D01*
X198185Y205300D01*
X203147Y207355D01*
X206945Y211153D01*
X209000Y216115D01*
X209000Y221485D01*
X206945Y226447D01*
X203147Y230245D01*
X198185Y232300D01*
X195763Y232300D01*
X194825Y232483D01*
X193996Y233032D01*
X156532Y270496D01*
X155998Y271288D01*
X155800Y272263D01*
X155800Y321401D01*
X155961Y322284D01*
X156490Y323126D01*
X157307Y323695D01*
X158280Y323901D01*
X159257Y323711D01*
X161215Y322900D01*
X164400Y322900D01*
X165301Y322732D01*
X166139Y322196D01*
X166702Y321375D01*
X166900Y320400D01*
X166900Y317715D01*
X168955Y312753D01*
X172753Y308955D01*
X177715Y306900D01*
X180137Y306900D01*
X181075Y306717D01*
X181904Y306168D01*
X189851Y298221D01*
X190361Y297483D01*
X190583Y296513D01*
X190408Y295534D01*
X189865Y294700D01*
X189040Y294144D01*
X187353Y293445D01*
X183555Y289647D01*
X181500Y284685D01*
X181500Y279315D01*
X183555Y274353D01*
X187353Y270555D01*
X192315Y268500D01*
X194737Y268500D01*
X195675Y268317D01*
X196504Y267768D01*
X239940Y224332D01*
X240474Y223540D01*
X240672Y222565D01*
X240672Y218462D01*
X242691Y213587D01*
X246110Y210168D01*
X246629Y209412D01*
X246842Y208440D01*
X246660Y207462D01*
X246110Y206632D01*
X242691Y203213D01*
X241047Y199243D01*
X240533Y198461D01*
X239712Y197898D01*
X238737Y197700D01*
X148475Y197700D01*
X145167Y196330D01*
X131070Y182233D01*
X130106Y179905D01*
X129619Y179151D01*
X128808Y178575D01*
G37*
G36*
X9728Y50198D02*
X8753Y50000D01*
X2500Y50000D01*
X1599Y50168D01*
X761Y50704D01*
X198Y51525D01*
X0Y52500D01*
X0Y312873D01*
X154Y313737D01*
X677Y314583D01*
X1488Y315159D01*
X2460Y315372D01*
X3438Y315190D01*
X4268Y314640D01*
X8353Y310555D01*
X12054Y309022D01*
X12793Y308549D01*
X13375Y307742D01*
X13596Y306772D01*
X13422Y305793D01*
X12879Y304959D01*
X12054Y304403D01*
X9968Y303539D01*
X8561Y302132D01*
X7800Y300295D01*
X7800Y198305D01*
X8561Y196468D01*
X9968Y195061D01*
X10048Y195028D01*
X10802Y194542D01*
X11377Y193730D01*
X11591Y192758D01*
X11408Y191780D01*
X10859Y190951D01*
X10555Y190647D01*
X8500Y185685D01*
X8500Y180315D01*
X10555Y175353D01*
X14353Y171555D01*
X19315Y169500D01*
X21737Y169500D01*
X22675Y169317D01*
X23504Y168768D01*
X45866Y146406D01*
X49174Y145036D01*
X113273Y145036D01*
X114137Y144882D01*
X114983Y144359D01*
X115559Y143548D01*
X115772Y142576D01*
X115590Y141598D01*
X115040Y140768D01*
X83004Y108732D01*
X82212Y108198D01*
X81237Y108000D01*
X77127Y108000D01*
X76189Y108183D01*
X75360Y108732D01*
X73647Y110445D01*
X68685Y112500D01*
X63315Y112500D01*
X58353Y110445D01*
X54555Y106647D01*
X52500Y101685D01*
X52500Y96315D01*
X54555Y91353D01*
X58353Y87555D01*
X63315Y85500D01*
X68685Y85500D01*
X73647Y87555D01*
X75360Y89268D01*
X76152Y89802D01*
X77127Y90000D01*
X82500Y90000D01*
X83401Y89832D01*
X84239Y89296D01*
X84802Y88475D01*
X85000Y87500D01*
X85000Y81022D01*
X88045Y73671D01*
X93671Y68045D01*
X101022Y65000D01*
X108978Y65000D01*
X116329Y68045D01*
X121955Y73671D01*
X125000Y81022D01*
X125000Y88978D01*
X121955Y96329D01*
X116329Y101955D01*
X109430Y104813D01*
X108676Y105300D01*
X108100Y106111D01*
X107887Y107083D01*
X108069Y108061D01*
X108618Y108891D01*
X155996Y156268D01*
X156788Y156802D01*
X157763Y157000D01*
X158085Y157000D01*
X163047Y159055D01*
X166845Y162853D01*
X168900Y167815D01*
X168900Y173185D01*
X167633Y176243D01*
X167444Y177120D01*
X167611Y178101D01*
X168147Y178939D01*
X168968Y179502D01*
X169943Y179700D01*
X180094Y179700D01*
X180977Y179539D01*
X181819Y179010D01*
X182388Y178193D01*
X182594Y177220D01*
X182404Y176243D01*
X181800Y174785D01*
X181800Y169415D01*
X183855Y164453D01*
X187653Y160655D01*
X192615Y158600D01*
X195000Y158600D01*
X195901Y158432D01*
X196739Y157896D01*
X197302Y157075D01*
X197500Y156100D01*
X197500Y94263D01*
X197317Y93325D01*
X196768Y92496D01*
X195304Y91032D01*
X194512Y90498D01*
X193537Y90300D01*
X191115Y90300D01*
X186153Y88245D01*
X182355Y84447D01*
X180300Y79485D01*
X180300Y74115D01*
X182355Y69153D01*
X186153Y65355D01*
X191115Y63300D01*
X196485Y63300D01*
X201447Y65355D01*
X205245Y69153D01*
X207300Y74115D01*
X207300Y76537D01*
X207483Y77475D01*
X208032Y78304D01*
X214130Y84402D01*
X215500Y87710D01*
X215500Y162690D01*
X214130Y165998D01*
X209532Y170596D01*
X208998Y171388D01*
X208800Y172363D01*
X208800Y174785D01*
X208196Y176243D01*
X208007Y177120D01*
X208174Y178101D01*
X208710Y178939D01*
X209531Y179502D01*
X210506Y179700D01*
X240814Y179700D01*
X241696Y179539D01*
X242539Y179010D01*
X243108Y178193D01*
X243314Y177220D01*
X243123Y176243D01*
X241672Y172740D01*
X241672Y171062D01*
X261962Y171062D01*
X261962Y158036D01*
X270903Y158036D01*
X275411Y159903D01*
X278861Y163353D01*
X279105Y163943D01*
X279578Y164683D01*
X280385Y165265D01*
X281355Y165486D01*
X282335Y165311D01*
X283169Y164769D01*
X283229Y164679D01*
X287353Y160555D01*
X289181Y159798D01*
X289935Y159311D01*
X290511Y158500D01*
X290724Y157528D01*
X290542Y156550D01*
X289992Y155720D01*
X247049Y112777D01*
X246275Y112251D01*
X245301Y112045D01*
X244325Y112235D01*
X243685Y112500D01*
X238315Y112500D01*
X233353Y110445D01*
X229555Y106647D01*
X227500Y101685D01*
X227500Y96315D01*
X229555Y91353D01*
X233353Y87555D01*
X238315Y85500D01*
X242500Y85500D01*
X243401Y85332D01*
X244239Y84796D01*
X244802Y83975D01*
X245000Y83000D01*
X245000Y81022D01*
X248045Y73671D01*
X253671Y68045D01*
X261022Y65000D01*
X268978Y65000D01*
X276329Y68045D01*
X281955Y73671D01*
X285000Y81022D01*
X285000Y88978D01*
X281955Y96329D01*
X276329Y101955D01*
X269430Y104813D01*
X268676Y105300D01*
X268100Y106111D01*
X267887Y107083D01*
X268069Y108061D01*
X268618Y108891D01*
X355732Y196004D01*
X356452Y196506D01*
X357420Y196735D01*
X358401Y196568D01*
X359239Y196032D01*
X359802Y195212D01*
X360000Y194237D01*
X360000Y74320D01*
X359846Y73456D01*
X359323Y72609D01*
X358512Y72034D01*
X357540Y71820D01*
X356562Y72003D01*
X355732Y72552D01*
X351329Y76955D01*
X343978Y80000D01*
X336022Y80000D01*
X328671Y76955D01*
X323045Y71329D01*
X320000Y63978D01*
X320000Y56022D01*
X321062Y53457D01*
X321252Y52580D01*
X321085Y51599D01*
X320549Y50761D01*
X319728Y50198D01*
X318753Y50000D01*
X51247Y50000D01*
X50365Y50161D01*
X49522Y50690D01*
X48953Y51507D01*
X48747Y52480D01*
X48938Y53457D01*
X50000Y56022D01*
X50000Y63978D01*
X46955Y71329D01*
X41329Y76955D01*
X33978Y80000D01*
X26022Y80000D01*
X18671Y76955D01*
X13045Y71329D01*
X10000Y63978D01*
X10000Y56022D01*
X11062Y53457D01*
X11252Y52580D01*
X11085Y51599D01*
X10549Y50761D01*
X9728Y50198D01*
G37*
%LPC*%
G36*
X251497Y158036D02*
X260438Y158036D01*
X260438Y169538D01*
X241672Y169538D01*
X241672Y167861D01*
X243539Y163353D01*
X246989Y159903D01*
X251497Y158036D01*
G37*
%LPD*%
D10*
X96100Y652700D03*
X121500Y652700D03*
X146900Y652700D03*
X172300Y652700D03*
X197700Y652700D03*
X223100Y652700D03*
X248500Y652700D03*
X273900Y652700D03*
X96100Y627300D03*
X121500Y627300D03*
X146900Y627300D03*
X172300Y627300D03*
X197700Y627300D03*
X223100Y627300D03*
X248500Y627300D03*
X273900Y627300D03*
D11*
X273900Y567700D03*
X248500Y567700D03*
X223100Y567700D03*
X197700Y567700D03*
X172300Y567700D03*
X146900Y567700D03*
X121500Y567700D03*
X96100Y567700D03*
D12*
X35000Y280000D03*
D13*
X35000Y260000D03*
X35000Y240000D03*
X35000Y220000D03*
D14*
X34595Y342900D03*
X16205Y342900D03*
D15*
X12300Y400000D03*
X37700Y400000D03*
D16*
X253936Y449700D02*
X268464Y449700D01*
X268464Y424300D02*
X253936Y424300D01*
X253936Y398900D02*
X268464Y398900D01*
X268464Y373500D02*
X253936Y373500D01*
X253936Y348100D02*
X268464Y348100D01*
X268464Y322700D02*
X253936Y322700D01*
X253936Y297300D02*
X268464Y297300D01*
X268464Y271900D02*
X253936Y271900D01*
X253936Y246500D02*
X268464Y246500D01*
X268464Y221100D02*
X253936Y221100D01*
X253936Y195700D02*
X268464Y195700D01*
X268464Y170300D02*
X253936Y170300D01*
X116064Y170300D02*
X101536Y170300D01*
X101536Y195700D02*
X116064Y195700D01*
X116064Y221100D02*
X101536Y221100D01*
X101536Y246500D02*
X116064Y246500D01*
X116064Y271900D02*
X101536Y271900D01*
X101536Y297300D02*
X116064Y297300D01*
X116064Y322700D02*
X101536Y322700D01*
X101536Y348100D02*
X116064Y348100D01*
X116064Y373500D02*
X101536Y373500D01*
X101536Y398900D02*
X116064Y398900D01*
X116064Y424300D02*
X101536Y424300D01*
X101536Y449700D02*
X116064Y449700D01*
D17*
X42000Y343000D02*
X35000Y343000D01*
X42000Y343000D02*
X55000Y356000D01*
X35000Y343000D02*
X34595Y342900D01*
X99000Y450000D02*
X108000Y450000D01*
X99000Y450000D02*
X70000Y479000D01*
X108000Y450000D02*
X108800Y449700D01*
X111000Y448000D02*
X120000Y448000D01*
X170000Y398000D01*
X184000Y398000D01*
X237000Y451000D01*
X237000Y476000D01*
X255000Y494000D01*
X263000Y494000D01*
X282000Y513000D01*
X293000Y513000D01*
X111000Y448000D02*
X108800Y449700D01*
D18*
X55000Y356000D03*
X70000Y479000D03*
X293000Y513000D03*
D17*
X228900Y224700D02*
X205500Y201300D01*
X133900Y201300D01*
X114100Y221100D01*
X108800Y221100D01*
X260600Y169700D02*
X261200Y170300D01*
X260600Y169700D02*
X228600Y169700D01*
X224000Y514000D02*
X182000Y514000D01*
D18*
X228900Y224700D03*
X228600Y169700D03*
X224000Y514000D03*
X182000Y514000D03*
D17*
X270000Y255000D02*
X295000Y255000D01*
X270000Y255000D02*
X262000Y247000D01*
X261200Y246500D01*
X47000Y626000D02*
X64000Y643000D01*
X47000Y626000D02*
X47000Y571000D01*
X159000Y459000D01*
X162000Y459000D01*
X177000Y444000D01*
X177000Y415000D01*
X254300Y246500D02*
X261200Y246500D01*
X254300Y246500D02*
X180400Y320400D01*
D18*
X295000Y255000D03*
X64000Y643000D03*
X177000Y415000D03*
X180400Y320400D03*
D17*
X212000Y340000D02*
X222000Y340000D01*
X255000Y373000D01*
X261000Y373000D01*
X261200Y373500D01*
X305000Y630000D02*
X305000Y641000D01*
X305000Y630000D02*
X322000Y613000D01*
X322000Y429000D01*
X267000Y374000D01*
X264000Y374000D01*
X261200Y373500D01*
D18*
X212000Y340000D03*
X305000Y641000D03*
D17*
X302000Y271000D02*
X312000Y271000D01*
X302000Y271000D02*
X301000Y272000D01*
X262000Y272000D01*
X261200Y271900D01*
X64000Y615000D02*
X64000Y619000D01*
X64000Y615000D02*
X86000Y593000D01*
X294000Y593000D01*
X298000Y589000D01*
X298000Y546000D01*
X258000Y506000D01*
X243000Y506000D01*
X229000Y492000D01*
X229000Y381000D02*
X195000Y347000D01*
X195000Y333000D01*
X255000Y273000D01*
X259000Y273000D01*
X261200Y271900D01*
D18*
X312000Y271000D03*
X64000Y619000D03*
X229000Y492000D03*
X229000Y381000D03*
D17*
X223200Y398700D02*
X163900Y339400D01*
X163900Y336400D01*
X223200Y398700D02*
X261156Y398700D01*
X261200Y398900D01*
X305000Y599000D02*
X305000Y606000D01*
X305000Y599000D02*
X310000Y594000D01*
X310000Y442000D01*
X268000Y400000D01*
X264000Y400000D01*
X261200Y398900D01*
D18*
X163900Y336400D03*
X305000Y606000D03*
D17*
X314000Y249000D02*
X314000Y215000D01*
X314000Y249000D02*
X329000Y264000D01*
X329000Y278000D01*
X310000Y297000D01*
X262000Y297000D01*
X261200Y297300D01*
X123000Y676000D02*
X73000Y676000D01*
X35000Y638000D01*
X35000Y562000D01*
X155000Y442000D01*
X177000Y468000D02*
X211000Y468000D01*
X229000Y324000D02*
X254000Y299000D01*
X259000Y299000D01*
X261200Y297300D01*
D18*
X314000Y215000D03*
X123000Y676000D03*
X155000Y442000D03*
X177000Y468000D03*
X211000Y468000D03*
X229000Y324000D03*
D17*
X262000Y425000D02*
X267000Y425000D01*
X285000Y443000D01*
X285000Y492000D01*
X262000Y425000D02*
X261200Y424300D01*
D18*
X285000Y492000D03*
D17*
X261200Y424300D02*
X227500Y424300D01*
D18*
X193800Y76800D03*
D17*
X206500Y89500D02*
X206500Y160900D01*
X206500Y89500D02*
X193800Y76800D01*
X206500Y160900D02*
X195300Y172100D01*
D18*
X195300Y172100D03*
X195500Y218800D03*
D17*
X146800Y267500D01*
X146800Y343600D01*
X227500Y424300D01*
X64000Y341000D02*
X64000Y336000D01*
X64000Y341000D02*
X85000Y362000D01*
X85000Y380000D01*
X103000Y398000D01*
X108000Y398000D01*
X108800Y398900D01*
X101000Y400000D02*
X50000Y451000D01*
X101000Y400000D02*
X108800Y398900D01*
D18*
X64000Y336000D03*
X50000Y451000D03*
D17*
X241000Y99000D02*
X246000Y99000D01*
X354000Y207000D01*
X354000Y300000D01*
X314500Y339500D02*
X310000Y344000D01*
X314500Y339500D02*
X354000Y300000D01*
X310000Y344000D02*
X266000Y344000D01*
X262000Y348000D01*
X261200Y348100D01*
X314500Y339500D02*
X346000Y371000D01*
D18*
X241000Y99000D03*
X346000Y371000D03*
D17*
X86000Y99000D02*
X66000Y99000D01*
X155400Y168400D02*
X155400Y170500D01*
X155400Y168400D02*
X86000Y99000D01*
X156200Y218600D02*
X133000Y241800D01*
X133000Y405000D01*
X114000Y424000D01*
X109000Y424000D01*
X108800Y424300D01*
X53000Y486000D02*
X67000Y500000D01*
X53000Y486000D02*
X53000Y472000D01*
X100000Y425000D01*
X106000Y425000D01*
X108800Y424300D01*
D18*
X66000Y99000D03*
X155400Y170500D03*
X156200Y218600D03*
X67000Y500000D03*
D17*
X342000Y219000D02*
X295000Y172000D01*
X342000Y219000D02*
X342000Y284000D01*
X304000Y322000D01*
X262000Y322000D01*
X261200Y322700D01*
X294000Y676000D02*
X196000Y676000D01*
X294000Y676000D02*
X334000Y636000D01*
X334000Y383000D01*
X312000Y361000D01*
X306000Y324000D02*
X304000Y322000D01*
D18*
X295000Y172000D03*
X196000Y676000D03*
X312000Y361000D03*
X306000Y324000D03*
D17*
X108000Y171000D02*
X93600Y171000D01*
X76900Y187700D01*
X108000Y171000D02*
X108800Y170300D01*
D18*
X76900Y187700D03*
D17*
X255000Y222000D02*
X261000Y222000D01*
X255000Y222000D02*
X195000Y282000D01*
X261000Y222000D02*
X261200Y221100D01*
D18*
X195000Y282000D03*
X22000Y183000D03*
D17*
X254200Y188700D02*
X261200Y195700D01*
X254200Y188700D02*
X150265Y188700D01*
X138700Y177135D01*
X138700Y169935D01*
X122801Y154036D01*
X50964Y154036D01*
X22000Y183000D01*
D18*
X43000Y186000D03*
D17*
X69600Y204600D02*
X99900Y204600D01*
X69600Y204600D02*
X51000Y186000D01*
X43000Y186000D01*
X99900Y204600D02*
X108800Y195700D01*
X261000Y450000D02*
X261000Y476000D01*
X252000Y524000D02*
X238000Y524000D01*
X225000Y537000D01*
X198000Y537000D01*
X261000Y450000D02*
X261200Y449700D01*
D18*
X261000Y476000D03*
X252000Y524000D03*
X198000Y537000D03*
D17*
X16000Y342000D02*
X16000Y322000D01*
X16000Y342000D02*
X16205Y342900D01*
D18*
X16000Y322000D03*
M02*
