G04 EAGLE Gerber RS-274X export*
G75*
%MOMM*%
%FSLAX34Y34*%
%LPD*%
%INBottom Copper*%
%IPPOS*%
%AMOC8*
5,1,8,0,0,1.08239X$1,22.5*%
G01*
G04 Define Apertures*
%ADD10R,1.164600X1.465300*%
%ADD11R,1.031200X1.420200*%
%ADD12P,1.79244X8X22.5*%
%ADD13P,1.79244X8X202.5*%
%ADD14R,1.440000X1.440000*%
%ADD15C,1.440000*%
%ADD16C,1.621000*%
%ADD17C,1.452800*%
%ADD18C,0.600000*%
%ADD19C,1.500000*%
%ADD20C,0.304800*%
G36*
X9728Y50198D02*
X8753Y50000D01*
X2500Y50000D01*
X1599Y50168D01*
X761Y50704D01*
X198Y51525D01*
X0Y52500D01*
X0Y312873D01*
X154Y313737D01*
X677Y314583D01*
X1488Y315159D01*
X2460Y315372D01*
X3438Y315190D01*
X4268Y314640D01*
X8353Y310555D01*
X13315Y308500D01*
X18685Y308500D01*
X23647Y310555D01*
X27445Y314353D01*
X29500Y319315D01*
X29500Y324685D01*
X27445Y329647D01*
X23647Y333445D01*
X23543Y333488D01*
X22761Y334002D01*
X22198Y334822D01*
X22000Y335797D01*
X22000Y388717D01*
X22183Y389655D01*
X22732Y390485D01*
X23939Y391692D01*
X24695Y392210D01*
X25667Y392424D01*
X26645Y392241D01*
X27475Y391692D01*
X30277Y388890D01*
X35093Y386895D01*
X36938Y386895D01*
X36938Y413105D01*
X35093Y413105D01*
X30277Y411110D01*
X27475Y408308D01*
X26719Y407790D01*
X25747Y407576D01*
X24769Y407759D01*
X23939Y408308D01*
X20290Y411958D01*
X15106Y414105D01*
X9494Y414105D01*
X4310Y411958D01*
X4268Y411915D01*
X3548Y411413D01*
X2580Y411184D01*
X1599Y411351D01*
X761Y411887D01*
X198Y412708D01*
X0Y413683D01*
X0Y692500D01*
X168Y693401D01*
X704Y694239D01*
X1525Y694802D01*
X2500Y695000D01*
X8753Y695000D01*
X9635Y694839D01*
X10478Y694310D01*
X11047Y693493D01*
X11253Y692520D01*
X11062Y691543D01*
X10000Y688978D01*
X10000Y681022D01*
X13045Y673671D01*
X18671Y668045D01*
X26022Y665000D01*
X33978Y665000D01*
X35543Y665648D01*
X36420Y665837D01*
X37401Y665670D01*
X38239Y665134D01*
X38802Y664314D01*
X39000Y663339D01*
X39000Y653702D01*
X38810Y652745D01*
X38000Y650790D01*
X38000Y634210D01*
X39370Y630902D01*
X49768Y620504D01*
X50302Y619712D01*
X50500Y618737D01*
X50500Y616315D01*
X52555Y611353D01*
X56353Y607555D01*
X58181Y606798D01*
X58935Y606311D01*
X59511Y605500D01*
X59724Y604528D01*
X59542Y603550D01*
X58992Y602720D01*
X42370Y586098D01*
X41000Y582790D01*
X41000Y462127D01*
X40817Y461189D01*
X40268Y460360D01*
X38555Y458647D01*
X36500Y453685D01*
X36500Y448315D01*
X38555Y443353D01*
X42353Y439555D01*
X47315Y437500D01*
X52685Y437500D01*
X57543Y439512D01*
X58420Y439701D01*
X59401Y439534D01*
X60239Y438998D01*
X60802Y438178D01*
X61000Y437203D01*
X61000Y375763D01*
X60817Y374825D01*
X60268Y373996D01*
X56504Y370232D01*
X55712Y369698D01*
X54737Y369500D01*
X52315Y369500D01*
X47353Y367445D01*
X43555Y363647D01*
X41500Y358685D01*
X41500Y353315D01*
X43555Y348353D01*
X47353Y344555D01*
X49805Y343540D01*
X50573Y343039D01*
X51142Y342223D01*
X51348Y341250D01*
X51158Y340273D01*
X50500Y338685D01*
X50500Y333315D01*
X52555Y328353D01*
X54268Y326640D01*
X54802Y325848D01*
X55000Y324873D01*
X55000Y291500D01*
X54832Y290599D01*
X54296Y289761D01*
X53475Y289198D01*
X52500Y289000D01*
X49619Y289000D01*
X48700Y289175D01*
X47866Y289718D01*
X47310Y290543D01*
X47287Y290599D01*
X45599Y292287D01*
X43393Y293200D01*
X26607Y293200D01*
X24401Y292287D01*
X22713Y290599D01*
X21800Y288393D01*
X21800Y271500D01*
X21632Y270599D01*
X21096Y269761D01*
X20275Y269198D01*
X19300Y269000D01*
X16210Y269000D01*
X12902Y267630D01*
X10370Y265098D01*
X9000Y261790D01*
X9000Y187390D01*
X8810Y186433D01*
X8500Y185685D01*
X8500Y180315D01*
X10555Y175353D01*
X14353Y171555D01*
X19315Y169500D01*
X24737Y169500D01*
X25601Y169346D01*
X26447Y168823D01*
X27023Y168012D01*
X27236Y167040D01*
X27054Y166062D01*
X26504Y165232D01*
X17370Y156098D01*
X16768Y154644D01*
X16254Y153862D01*
X15433Y153299D01*
X14458Y153101D01*
X14456Y153101D01*
X12250Y152188D01*
X10562Y150500D01*
X9649Y148294D01*
X9649Y131706D01*
X9799Y131342D01*
X9990Y130405D01*
X9799Y129429D01*
X9423Y128520D01*
X9423Y111480D01*
X10336Y109275D01*
X12024Y107587D01*
X14230Y106674D01*
X28262Y106674D01*
X30350Y107538D01*
X31287Y107728D01*
X31568Y107674D01*
X37992Y107674D01*
X37992Y120762D01*
X39516Y120762D01*
X39516Y107674D01*
X45572Y107674D01*
X47409Y108435D01*
X48816Y109841D01*
X49649Y111853D01*
X50122Y112592D01*
X50929Y113174D01*
X51899Y113396D01*
X52879Y113221D01*
X53712Y112678D01*
X54269Y111853D01*
X55238Y109512D01*
X55428Y108596D01*
X55246Y107617D01*
X54696Y106788D01*
X54555Y106647D01*
X52500Y101685D01*
X52500Y96315D01*
X54555Y91353D01*
X58353Y87555D01*
X63315Y85500D01*
X68685Y85500D01*
X73647Y87555D01*
X77445Y91353D01*
X79500Y96315D01*
X79500Y101685D01*
X78451Y104217D01*
X78262Y105094D01*
X78429Y106075D01*
X78965Y106913D01*
X79786Y107476D01*
X80761Y107674D01*
X82992Y107674D01*
X82992Y120762D01*
X84516Y120762D01*
X84516Y107674D01*
X90572Y107674D01*
X92409Y108435D01*
X93816Y109841D01*
X94649Y111853D01*
X95122Y112592D01*
X95929Y113174D01*
X96899Y113396D01*
X97879Y113221D01*
X98712Y112678D01*
X99269Y111853D01*
X100336Y109275D01*
X100914Y108697D01*
X101425Y107959D01*
X101646Y106989D01*
X101471Y106009D01*
X100928Y105176D01*
X100103Y104620D01*
X93671Y101955D01*
X88045Y96329D01*
X85000Y88978D01*
X85000Y81022D01*
X88045Y73671D01*
X93671Y68045D01*
X101022Y65000D01*
X108978Y65000D01*
X116329Y68045D01*
X121955Y73671D01*
X124768Y80462D01*
X125254Y81215D01*
X126066Y81791D01*
X127038Y82005D01*
X128016Y81822D01*
X128845Y81273D01*
X140948Y69170D01*
X144256Y67800D01*
X182673Y67800D01*
X183611Y67617D01*
X184440Y67068D01*
X186153Y65355D01*
X191115Y63300D01*
X196485Y63300D01*
X201447Y65355D01*
X205245Y69153D01*
X207300Y74115D01*
X207300Y79485D01*
X205245Y84447D01*
X201447Y88245D01*
X196485Y90300D01*
X191115Y90300D01*
X186153Y88245D01*
X184440Y86532D01*
X183648Y85998D01*
X182673Y85800D01*
X150809Y85800D01*
X149871Y85983D01*
X149042Y86532D01*
X132168Y103406D01*
X131666Y104126D01*
X131437Y105094D01*
X131604Y106075D01*
X132140Y106913D01*
X132961Y107476D01*
X133936Y107674D01*
X135572Y107674D01*
X137409Y108435D01*
X138816Y109841D01*
X139649Y111853D01*
X140122Y112592D01*
X140929Y113174D01*
X141899Y113396D01*
X142879Y113221D01*
X143712Y112678D01*
X144269Y111853D01*
X145336Y109275D01*
X147024Y107587D01*
X149230Y106674D01*
X163262Y106674D01*
X165350Y107538D01*
X166287Y107728D01*
X166568Y107674D01*
X172992Y107674D01*
X172992Y120762D01*
X174516Y120762D01*
X174516Y107674D01*
X180572Y107674D01*
X182409Y108435D01*
X183816Y109841D01*
X184649Y111853D01*
X185122Y112592D01*
X185929Y113174D01*
X186899Y113396D01*
X187879Y113221D01*
X188712Y112678D01*
X189269Y111853D01*
X190336Y109275D01*
X192024Y107587D01*
X194230Y106674D01*
X208262Y106674D01*
X210350Y107538D01*
X211287Y107728D01*
X211568Y107674D01*
X217992Y107674D01*
X217992Y120762D01*
X219516Y120762D01*
X219516Y107674D01*
X225797Y107674D01*
X226174Y107757D01*
X227157Y107598D01*
X227999Y107068D01*
X228568Y106252D01*
X228774Y105278D01*
X228584Y104302D01*
X227500Y101685D01*
X227500Y96315D01*
X229555Y91353D01*
X233353Y87555D01*
X238315Y85500D01*
X242500Y85500D01*
X243401Y85332D01*
X244239Y84796D01*
X244802Y83975D01*
X245000Y83000D01*
X245000Y81022D01*
X248045Y73671D01*
X253671Y68045D01*
X261022Y65000D01*
X268978Y65000D01*
X276329Y68045D01*
X281955Y73671D01*
X285000Y81022D01*
X285000Y88978D01*
X281955Y96329D01*
X276329Y101955D01*
X272124Y103697D01*
X271385Y104170D01*
X270803Y104977D01*
X270581Y105947D01*
X270756Y106927D01*
X271299Y107760D01*
X272124Y108317D01*
X272409Y108435D01*
X273816Y109841D01*
X274649Y111853D01*
X275122Y112592D01*
X275929Y113174D01*
X276899Y113396D01*
X277879Y113221D01*
X278712Y112678D01*
X279269Y111853D01*
X280336Y109275D01*
X282024Y107587D01*
X284230Y106674D01*
X298262Y106674D01*
X300350Y107538D01*
X301287Y107728D01*
X301568Y107674D01*
X307992Y107674D01*
X307992Y120762D01*
X319577Y120762D01*
X319577Y128321D01*
X319118Y129429D01*
X318928Y130366D01*
X319118Y131342D01*
X319351Y131904D01*
X319351Y139238D01*
X308433Y139238D01*
X308433Y152101D01*
X306500Y152101D01*
X305599Y152269D01*
X304761Y152805D01*
X304198Y153626D01*
X304000Y154601D01*
X304000Y160873D01*
X304183Y161811D01*
X304732Y162640D01*
X306445Y164353D01*
X308500Y169315D01*
X308500Y174685D01*
X306445Y179647D01*
X302647Y183445D01*
X297685Y185500D01*
X292315Y185500D01*
X290857Y184896D01*
X289980Y184707D01*
X288999Y184874D01*
X288161Y185410D01*
X287598Y186231D01*
X287400Y187206D01*
X287400Y239794D01*
X287561Y240677D01*
X288090Y241519D01*
X288907Y242088D01*
X289880Y242294D01*
X290857Y242104D01*
X292315Y241500D01*
X297685Y241500D01*
X302647Y243555D01*
X306445Y247353D01*
X307730Y250457D01*
X308244Y251239D01*
X309065Y251802D01*
X310040Y252000D01*
X317857Y252000D01*
X318776Y251825D01*
X319610Y251282D01*
X320166Y250457D01*
X320562Y249500D01*
X321268Y248795D01*
X321802Y248002D01*
X322000Y247027D01*
X322000Y243424D01*
X321817Y242486D01*
X321268Y241657D01*
X320336Y240725D01*
X319423Y238520D01*
X319423Y231000D01*
X319255Y230099D01*
X318719Y229261D01*
X317898Y228698D01*
X316923Y228500D01*
X311315Y228500D01*
X306353Y226445D01*
X302555Y222647D01*
X300500Y217685D01*
X300500Y212315D01*
X302555Y207353D01*
X306353Y203555D01*
X311315Y201500D01*
X313737Y201500D01*
X314675Y201317D01*
X315504Y200768D01*
X318917Y197355D01*
X319451Y196563D01*
X319649Y195588D01*
X319649Y191706D01*
X320562Y189500D01*
X321268Y188795D01*
X321802Y188002D01*
X322000Y187027D01*
X322000Y183424D01*
X321817Y182486D01*
X321268Y181657D01*
X320336Y180725D01*
X319423Y178520D01*
X319423Y161480D01*
X320336Y159275D01*
X322024Y157587D01*
X324230Y156674D01*
X338262Y156674D01*
X340350Y157538D01*
X341287Y157728D01*
X341568Y157674D01*
X347992Y157674D01*
X347992Y182327D01*
X342500Y182327D01*
X341599Y182495D01*
X340761Y183031D01*
X340198Y183851D01*
X340000Y184827D01*
X340000Y185419D01*
X340161Y186301D01*
X340690Y187143D01*
X341507Y187713D01*
X342480Y187918D01*
X342580Y187899D01*
X348433Y187899D01*
X348433Y212101D01*
X343044Y212101D01*
X342043Y211686D01*
X341127Y211496D01*
X340148Y211679D01*
X339415Y212165D01*
X338972Y212348D01*
X338233Y212821D01*
X337651Y213628D01*
X337430Y214598D01*
X337604Y215578D01*
X338147Y216411D01*
X338972Y216967D01*
X340350Y217538D01*
X341287Y217728D01*
X341568Y217674D01*
X347992Y217674D01*
X347992Y242327D01*
X342500Y242327D01*
X341599Y242495D01*
X340761Y243031D01*
X340198Y243851D01*
X340000Y244827D01*
X340000Y245419D01*
X340161Y246301D01*
X340690Y247143D01*
X341507Y247713D01*
X342480Y247918D01*
X342580Y247899D01*
X348433Y247899D01*
X348433Y272101D01*
X343044Y272101D01*
X342043Y271686D01*
X341127Y271496D01*
X340148Y271679D01*
X339415Y272165D01*
X338972Y272348D01*
X338233Y272821D01*
X337651Y273628D01*
X337430Y274598D01*
X337604Y275578D01*
X338147Y276411D01*
X338972Y276967D01*
X340350Y277538D01*
X341287Y277728D01*
X341568Y277674D01*
X347992Y277674D01*
X347992Y302327D01*
X342500Y302327D01*
X341599Y302495D01*
X340761Y303031D01*
X340198Y303851D01*
X340000Y304827D01*
X340000Y305419D01*
X340161Y306301D01*
X340690Y307143D01*
X341507Y307713D01*
X342480Y307918D01*
X342580Y307899D01*
X348433Y307899D01*
X348433Y332101D01*
X343044Y332101D01*
X342043Y331686D01*
X341127Y331496D01*
X340148Y331679D01*
X339415Y332165D01*
X338972Y332348D01*
X338233Y332821D01*
X337651Y333628D01*
X337430Y334598D01*
X337604Y335578D01*
X338147Y336411D01*
X338972Y336967D01*
X340350Y337538D01*
X341287Y337728D01*
X341568Y337674D01*
X347992Y337674D01*
X347992Y350762D01*
X349516Y350762D01*
X349516Y337674D01*
X355572Y337674D01*
X356543Y338076D01*
X357420Y338265D01*
X358401Y338098D01*
X359239Y337562D01*
X359802Y336741D01*
X360000Y335766D01*
X360000Y333915D01*
X359839Y333032D01*
X359310Y332190D01*
X358493Y331620D01*
X357520Y331415D01*
X356543Y331605D01*
X355346Y332101D01*
X349957Y332101D01*
X349957Y307899D01*
X355346Y307899D01*
X356543Y308395D01*
X357420Y308584D01*
X358401Y308417D01*
X359239Y307881D01*
X359802Y307061D01*
X360000Y306085D01*
X360000Y304234D01*
X359839Y303351D01*
X359310Y302509D01*
X358493Y301940D01*
X357520Y301734D01*
X356543Y301924D01*
X355572Y302327D01*
X349516Y302327D01*
X349516Y277674D01*
X355572Y277674D01*
X356543Y278076D01*
X357420Y278265D01*
X358401Y278098D01*
X359239Y277562D01*
X359802Y276741D01*
X360000Y275766D01*
X360000Y273915D01*
X359839Y273032D01*
X359310Y272190D01*
X358493Y271620D01*
X357520Y271415D01*
X356543Y271605D01*
X355346Y272101D01*
X349957Y272101D01*
X349957Y247899D01*
X355346Y247899D01*
X356543Y248395D01*
X357420Y248584D01*
X358401Y248417D01*
X359239Y247881D01*
X359802Y247061D01*
X360000Y246085D01*
X360000Y244234D01*
X359839Y243351D01*
X359310Y242509D01*
X358493Y241940D01*
X357520Y241734D01*
X356543Y241924D01*
X355572Y242327D01*
X349516Y242327D01*
X349516Y217674D01*
X355572Y217674D01*
X356543Y218076D01*
X357420Y218265D01*
X358401Y218098D01*
X359239Y217562D01*
X359802Y216741D01*
X360000Y215766D01*
X360000Y213915D01*
X359839Y213032D01*
X359310Y212190D01*
X358493Y211620D01*
X357520Y211415D01*
X356543Y211605D01*
X355346Y212101D01*
X349957Y212101D01*
X349957Y187899D01*
X355346Y187899D01*
X356543Y188395D01*
X357420Y188584D01*
X358401Y188417D01*
X359239Y187881D01*
X359802Y187061D01*
X360000Y186085D01*
X360000Y184234D01*
X359839Y183351D01*
X359310Y182509D01*
X358493Y181940D01*
X357520Y181734D01*
X356543Y181924D01*
X355572Y182327D01*
X349516Y182327D01*
X349516Y157674D01*
X355572Y157674D01*
X356543Y158076D01*
X357420Y158265D01*
X358401Y158098D01*
X359239Y157562D01*
X359802Y156741D01*
X360000Y155766D01*
X360000Y74320D01*
X359846Y73456D01*
X359323Y72609D01*
X358512Y72034D01*
X357540Y71820D01*
X356562Y72003D01*
X355732Y72552D01*
X351329Y76955D01*
X343978Y80000D01*
X336022Y80000D01*
X328671Y76955D01*
X323045Y71329D01*
X320000Y63978D01*
X320000Y56022D01*
X321062Y53457D01*
X321252Y52580D01*
X321085Y51599D01*
X320549Y50761D01*
X319728Y50198D01*
X318753Y50000D01*
X51247Y50000D01*
X50365Y50161D01*
X49522Y50690D01*
X48953Y51507D01*
X48747Y52480D01*
X48938Y53457D01*
X50000Y56022D01*
X50000Y63978D01*
X46955Y71329D01*
X41329Y76955D01*
X33978Y80000D01*
X26022Y80000D01*
X18671Y76955D01*
X13045Y71329D01*
X10000Y63978D01*
X10000Y56022D01*
X11062Y53457D01*
X11252Y52580D01*
X11085Y51599D01*
X10549Y50761D01*
X9728Y50198D01*
G37*
%LPC*%
G36*
X38462Y400762D02*
X50805Y400762D01*
X50805Y402607D01*
X48810Y407423D01*
X45123Y411110D01*
X40307Y413105D01*
X38462Y413105D01*
X38462Y400762D01*
G37*
G36*
X38462Y386895D02*
X40307Y386895D01*
X45123Y388890D01*
X48810Y392577D01*
X50805Y397393D01*
X50805Y399238D01*
X38462Y399238D01*
X38462Y386895D01*
G37*
G36*
X309957Y140762D02*
X319351Y140762D01*
X319351Y148096D01*
X318590Y149933D01*
X317183Y151340D01*
X315346Y152101D01*
X309957Y152101D01*
X309957Y140762D01*
G37*
G36*
X309516Y107674D02*
X315572Y107674D01*
X317409Y108435D01*
X318816Y109841D01*
X319577Y111679D01*
X319577Y119238D01*
X309516Y119238D01*
X309516Y107674D01*
G37*
%LPD*%
G36*
X206457Y480730D02*
X205580Y480541D01*
X204599Y480708D01*
X203761Y481244D01*
X203198Y482065D01*
X203000Y483040D01*
X203000Y497237D01*
X203183Y498175D01*
X203732Y499004D01*
X214630Y509902D01*
X216000Y513210D01*
X216000Y517237D01*
X216183Y518175D01*
X216732Y519004D01*
X230630Y532902D01*
X232000Y536210D01*
X232000Y555370D01*
X232183Y556308D01*
X232732Y557137D01*
X234032Y558437D01*
X234788Y558956D01*
X235760Y559169D01*
X236738Y558987D01*
X237568Y558437D01*
X242585Y553420D01*
X254415Y553420D01*
X260139Y559144D01*
X260895Y559663D01*
X261867Y559876D01*
X262845Y559694D01*
X263675Y559144D01*
X268778Y554041D01*
X269296Y553285D01*
X269510Y552313D01*
X269327Y551335D01*
X268778Y550506D01*
X268370Y550098D01*
X267000Y546790D01*
X267000Y534127D01*
X266846Y533264D01*
X266323Y532417D01*
X265512Y531841D01*
X264540Y531628D01*
X263562Y531810D01*
X262732Y532360D01*
X259647Y535445D01*
X254685Y537500D01*
X249315Y537500D01*
X244353Y535445D01*
X240555Y531647D01*
X238500Y526685D01*
X238500Y521315D01*
X240555Y516353D01*
X242268Y514640D01*
X242802Y513848D01*
X243000Y512873D01*
X243000Y503127D01*
X242846Y502264D01*
X242323Y501417D01*
X241512Y500841D01*
X240540Y500628D01*
X239562Y500810D01*
X238732Y501360D01*
X236647Y503445D01*
X231685Y505500D01*
X226315Y505500D01*
X221353Y503445D01*
X217555Y499647D01*
X215500Y494685D01*
X215500Y489315D01*
X217473Y484550D01*
X217662Y483693D01*
X217503Y482711D01*
X216973Y481869D01*
X216157Y481299D01*
X215184Y481094D01*
X214207Y481284D01*
X213685Y481500D01*
X208315Y481500D01*
X206457Y480730D01*
G37*
G36*
X142989Y126826D02*
X142019Y126604D01*
X141039Y126779D01*
X140205Y127322D01*
X139649Y128147D01*
X139118Y129429D01*
X138928Y130366D01*
X139118Y131342D01*
X139351Y131904D01*
X139351Y139238D01*
X128433Y139238D01*
X128433Y140762D01*
X139351Y140762D01*
X139351Y148096D01*
X138590Y149933D01*
X137183Y151340D01*
X135346Y152101D01*
X135208Y152101D01*
X134344Y152255D01*
X133497Y152778D01*
X132921Y153589D01*
X132708Y154561D01*
X132890Y155539D01*
X133440Y156369D01*
X134239Y157168D01*
X135000Y159005D01*
X135000Y460995D01*
X134239Y462832D01*
X132832Y464239D01*
X130995Y465000D01*
X98763Y465000D01*
X97900Y465154D01*
X97053Y465677D01*
X96477Y466488D01*
X96264Y467460D01*
X96446Y468438D01*
X96996Y469268D01*
X179630Y551902D01*
X181015Y555246D01*
X181183Y556108D01*
X181732Y556937D01*
X183232Y558437D01*
X183988Y558956D01*
X184960Y559169D01*
X185938Y558987D01*
X186768Y558437D01*
X188268Y556937D01*
X188802Y556145D01*
X189000Y555170D01*
X189000Y548127D01*
X188817Y547189D01*
X188268Y546360D01*
X186555Y544647D01*
X184500Y539685D01*
X184500Y534315D01*
X186555Y529353D01*
X190353Y525555D01*
X195315Y523500D01*
X195500Y523500D01*
X196401Y523332D01*
X197239Y522796D01*
X197802Y521975D01*
X198000Y521000D01*
X198000Y519763D01*
X197817Y518825D01*
X197268Y517996D01*
X186370Y507098D01*
X185000Y503790D01*
X185000Y483040D01*
X184839Y482158D01*
X184310Y481315D01*
X183493Y480746D01*
X182520Y480540D01*
X181543Y480730D01*
X179685Y481500D01*
X174315Y481500D01*
X169353Y479445D01*
X165555Y475647D01*
X163500Y470685D01*
X163500Y465247D01*
X163662Y464466D01*
X163480Y463487D01*
X162930Y462658D01*
X156504Y456232D01*
X155712Y455698D01*
X154737Y455500D01*
X152315Y455500D01*
X147353Y453445D01*
X143555Y449647D01*
X141500Y444685D01*
X141500Y439315D01*
X143555Y434353D01*
X147353Y430555D01*
X152315Y428500D01*
X157685Y428500D01*
X162647Y430555D01*
X166445Y434353D01*
X168500Y439315D01*
X168500Y441737D01*
X168683Y442675D01*
X169232Y443504D01*
X180260Y454532D01*
X181071Y455074D01*
X181543Y455270D01*
X182420Y455459D01*
X183401Y455292D01*
X184239Y454756D01*
X184802Y453935D01*
X185000Y452960D01*
X185000Y430040D01*
X184839Y429158D01*
X184310Y428315D01*
X183493Y427746D01*
X182520Y427540D01*
X181543Y427730D01*
X179685Y428500D01*
X174315Y428500D01*
X169353Y426445D01*
X165555Y422647D01*
X163500Y417685D01*
X163500Y412315D01*
X165555Y407353D01*
X169353Y403555D01*
X169857Y403347D01*
X170639Y402833D01*
X171202Y402012D01*
X171400Y401037D01*
X171400Y351647D01*
X171239Y350765D01*
X170710Y349922D01*
X169893Y349353D01*
X168920Y349147D01*
X167943Y349338D01*
X166585Y349900D01*
X161215Y349900D01*
X156253Y347845D01*
X152455Y344047D01*
X150400Y339085D01*
X150400Y333715D01*
X152455Y328753D01*
X154168Y327040D01*
X154702Y326248D01*
X154900Y325273D01*
X154900Y270010D01*
X156270Y266702D01*
X168468Y254504D01*
X169002Y253712D01*
X169200Y252737D01*
X169200Y230727D01*
X169046Y229864D01*
X168523Y229017D01*
X167712Y228441D01*
X166740Y228228D01*
X165762Y228410D01*
X164932Y228960D01*
X163847Y230045D01*
X158885Y232100D01*
X153515Y232100D01*
X148553Y230045D01*
X144755Y226247D01*
X142700Y221285D01*
X142700Y215915D01*
X144755Y210953D01*
X145668Y210040D01*
X146202Y209248D01*
X146400Y208273D01*
X146400Y181627D01*
X146217Y180689D01*
X145668Y179860D01*
X143955Y178147D01*
X141900Y173185D01*
X141900Y167815D01*
X143955Y162853D01*
X147753Y159055D01*
X149161Y158472D01*
X149915Y157986D01*
X150490Y157174D01*
X150704Y156202D01*
X150521Y155224D01*
X149972Y154395D01*
X148480Y152903D01*
X147669Y152361D01*
X147250Y152188D01*
X145562Y150500D01*
X144649Y148294D01*
X144649Y131706D01*
X144799Y131342D01*
X144990Y130406D01*
X144799Y129429D01*
X144269Y128147D01*
X143796Y127408D01*
X142989Y126826D01*
G37*
G36*
X232989Y126826D02*
X232019Y126604D01*
X231039Y126779D01*
X230205Y127322D01*
X229649Y128147D01*
X229118Y129429D01*
X228928Y130366D01*
X229118Y131342D01*
X229351Y131904D01*
X229351Y139238D01*
X218433Y139238D01*
X218433Y152231D01*
X218301Y152255D01*
X217454Y152778D01*
X216878Y153589D01*
X216665Y154561D01*
X216847Y155539D01*
X217397Y156369D01*
X219630Y158602D01*
X221000Y161910D01*
X221000Y308960D01*
X221161Y309843D01*
X221690Y310685D01*
X222507Y311254D01*
X223480Y311460D01*
X224457Y311270D01*
X226315Y310500D01*
X231685Y310500D01*
X233943Y311435D01*
X234820Y311624D01*
X235801Y311458D01*
X236639Y310921D01*
X237202Y310101D01*
X237400Y309126D01*
X237400Y159005D01*
X238161Y157168D01*
X238770Y156559D01*
X239281Y155821D01*
X239502Y154851D01*
X239327Y153871D01*
X238784Y153037D01*
X237959Y152481D01*
X237250Y152188D01*
X235562Y150500D01*
X234649Y148294D01*
X234649Y131706D01*
X234799Y131342D01*
X234990Y130406D01*
X234799Y129429D01*
X234269Y128147D01*
X233796Y127408D01*
X232989Y126826D01*
G37*
%LPC*%
G36*
X219957Y140762D02*
X229351Y140762D01*
X229351Y148096D01*
X228590Y149933D01*
X227183Y151340D01*
X225346Y152101D01*
X219957Y152101D01*
X219957Y140762D01*
G37*
%LPD*%
G36*
X97989Y126826D02*
X97019Y126604D01*
X96039Y126779D01*
X95205Y127322D01*
X94649Y128147D01*
X94118Y129429D01*
X93928Y130366D01*
X94118Y131342D01*
X94351Y131904D01*
X94351Y139238D01*
X83433Y139238D01*
X83433Y152101D01*
X78044Y152101D01*
X77043Y151686D01*
X76127Y151496D01*
X75148Y151679D01*
X74415Y152165D01*
X72154Y153101D01*
X59456Y153101D01*
X57250Y152188D01*
X55562Y150500D01*
X54649Y148294D01*
X54649Y131706D01*
X54799Y131342D01*
X54990Y130406D01*
X54799Y129429D01*
X54269Y128147D01*
X53796Y127408D01*
X52989Y126826D01*
X52019Y126604D01*
X51039Y126779D01*
X50205Y127322D01*
X49649Y128147D01*
X49118Y129429D01*
X48928Y130366D01*
X49118Y131342D01*
X49351Y131904D01*
X49351Y139238D01*
X38433Y139238D01*
X38433Y140762D01*
X49351Y140762D01*
X49351Y148096D01*
X48590Y149933D01*
X47183Y151340D01*
X45346Y152101D01*
X44864Y152101D01*
X44001Y152255D01*
X43154Y152778D01*
X42578Y153589D01*
X42365Y154561D01*
X42547Y155539D01*
X43097Y156369D01*
X45996Y159268D01*
X46788Y159802D01*
X47763Y160000D01*
X61790Y160000D01*
X65098Y161370D01*
X67630Y163902D01*
X69000Y167210D01*
X69000Y172618D01*
X69161Y173501D01*
X69690Y174343D01*
X70507Y174913D01*
X71480Y175118D01*
X72457Y174928D01*
X74215Y174200D01*
X79585Y174200D01*
X81543Y175011D01*
X82420Y175200D01*
X83401Y175033D01*
X84239Y174497D01*
X84802Y173676D01*
X85000Y172701D01*
X85000Y159005D01*
X85761Y157168D01*
X86560Y156369D01*
X87062Y155649D01*
X87291Y154681D01*
X87124Y153700D01*
X86588Y152862D01*
X85768Y152299D01*
X84957Y152134D01*
X84957Y140762D01*
X94351Y140762D01*
X94351Y148096D01*
X93590Y149933D01*
X92791Y150732D01*
X92289Y151452D01*
X92060Y152420D01*
X92227Y153401D01*
X92763Y154239D01*
X93584Y154802D01*
X94559Y155000D01*
X99027Y155000D01*
X99891Y154846D01*
X100738Y154323D01*
X101313Y153512D01*
X101527Y152540D01*
X101344Y151562D01*
X100795Y150732D01*
X100562Y150500D01*
X99649Y148294D01*
X99649Y131706D01*
X99799Y131342D01*
X99990Y130406D01*
X99799Y129429D01*
X99269Y128147D01*
X98796Y127408D01*
X97989Y126826D01*
G37*
G36*
X187989Y126826D02*
X187019Y126604D01*
X186039Y126779D01*
X185205Y127322D01*
X184649Y128147D01*
X184118Y129429D01*
X183928Y130366D01*
X184118Y131342D01*
X184351Y131904D01*
X184351Y139238D01*
X173433Y139238D01*
X173433Y140762D01*
X184351Y140762D01*
X184351Y148096D01*
X183590Y149933D01*
X182183Y151340D01*
X180346Y152101D01*
X179169Y152101D01*
X178306Y152255D01*
X177459Y152778D01*
X176883Y153589D01*
X176670Y154561D01*
X176852Y155539D01*
X177402Y156369D01*
X182903Y161870D01*
X183659Y162388D01*
X184631Y162602D01*
X185609Y162419D01*
X186438Y161870D01*
X187653Y160655D01*
X191136Y159213D01*
X191904Y158712D01*
X192473Y157896D01*
X192679Y156923D01*
X192489Y155946D01*
X191805Y154295D01*
X191805Y152778D01*
X191622Y151840D01*
X191073Y151010D01*
X190562Y150500D01*
X189649Y148294D01*
X189649Y131706D01*
X189799Y131342D01*
X189990Y130406D01*
X189799Y129429D01*
X189269Y128147D01*
X188796Y127408D01*
X187989Y126826D01*
G37*
G36*
X277989Y126826D02*
X277019Y126604D01*
X276039Y126779D01*
X275205Y127322D01*
X274649Y128147D01*
X274118Y129429D01*
X273928Y130366D01*
X274118Y131342D01*
X274351Y131904D01*
X274351Y139238D01*
X263433Y139238D01*
X263433Y140762D01*
X274351Y140762D01*
X274351Y148096D01*
X273590Y149933D01*
X272791Y150732D01*
X272289Y151452D01*
X272060Y152420D01*
X272227Y153401D01*
X272763Y154239D01*
X273584Y154802D01*
X274559Y155000D01*
X279027Y155000D01*
X279891Y154846D01*
X280738Y154323D01*
X281313Y153512D01*
X281527Y152540D01*
X281344Y151562D01*
X280795Y150732D01*
X280562Y150500D01*
X279649Y148294D01*
X279649Y131706D01*
X279799Y131342D01*
X279990Y130406D01*
X279799Y129429D01*
X279269Y128147D01*
X278796Y127408D01*
X277989Y126826D01*
G37*
D10*
X331246Y350000D03*
X348754Y350000D03*
D11*
X349195Y260000D03*
X330805Y260000D03*
D10*
X348754Y230000D03*
X331246Y230000D03*
D11*
X349195Y200000D03*
X330805Y200000D03*
D10*
X348754Y170000D03*
X331246Y170000D03*
D11*
X309195Y140000D03*
X290805Y140000D03*
D10*
X308754Y120000D03*
X291246Y120000D03*
D11*
X349195Y320000D03*
X330805Y320000D03*
D10*
X348754Y290000D03*
X331246Y290000D03*
D11*
X264195Y140000D03*
X245805Y140000D03*
D10*
X263754Y120000D03*
X246246Y120000D03*
D11*
X200805Y140000D03*
X219195Y140000D03*
D10*
X201246Y120000D03*
X218754Y120000D03*
D11*
X155805Y140000D03*
X174195Y140000D03*
D10*
X156246Y120000D03*
X173754Y120000D03*
D11*
X110805Y140000D03*
X129195Y140000D03*
D10*
X111246Y120000D03*
X128754Y120000D03*
D11*
X65805Y140000D03*
X84195Y140000D03*
D10*
X66246Y120000D03*
X83754Y120000D03*
D11*
X20805Y140000D03*
X39195Y140000D03*
D10*
X21246Y120000D03*
X38754Y120000D03*
D12*
X96100Y652700D03*
X121500Y652700D03*
X146900Y652700D03*
X172300Y652700D03*
X197700Y652700D03*
X223100Y652700D03*
X248500Y652700D03*
X273900Y652700D03*
X96100Y627300D03*
X121500Y627300D03*
X146900Y627300D03*
X172300Y627300D03*
X197700Y627300D03*
X223100Y627300D03*
X248500Y627300D03*
X273900Y627300D03*
D13*
X273900Y567700D03*
X248500Y567700D03*
X223100Y567700D03*
X197700Y567700D03*
X172300Y567700D03*
X146900Y567700D03*
X121500Y567700D03*
X96100Y567700D03*
D14*
X35000Y280000D03*
D15*
X35000Y260000D03*
X35000Y240000D03*
X35000Y220000D03*
D16*
X12300Y400000D03*
X37700Y400000D03*
D17*
X253936Y449700D02*
X268464Y449700D01*
X268464Y424300D02*
X253936Y424300D01*
X253936Y398900D02*
X268464Y398900D01*
X268464Y373500D02*
X253936Y373500D01*
X253936Y348100D02*
X268464Y348100D01*
X268464Y322700D02*
X253936Y322700D01*
X253936Y297300D02*
X268464Y297300D01*
X268464Y271900D02*
X253936Y271900D01*
X253936Y246500D02*
X268464Y246500D01*
X268464Y221100D02*
X253936Y221100D01*
X253936Y195700D02*
X268464Y195700D01*
X268464Y170300D02*
X253936Y170300D01*
X116064Y170300D02*
X101536Y170300D01*
X101536Y195700D02*
X116064Y195700D01*
X116064Y221100D02*
X101536Y221100D01*
X101536Y246500D02*
X116064Y246500D01*
X116064Y271900D02*
X101536Y271900D01*
X101536Y297300D02*
X116064Y297300D01*
X116064Y322700D02*
X101536Y322700D01*
X101536Y348100D02*
X116064Y348100D01*
X116064Y373500D02*
X101536Y373500D01*
X101536Y398900D02*
X116064Y398900D01*
X116064Y424300D02*
X101536Y424300D01*
X101536Y449700D02*
X116064Y449700D01*
D18*
X70000Y371000D02*
X55000Y356000D01*
X70000Y371000D02*
X70000Y479000D01*
X103000Y512000D01*
X103000Y549000D01*
X121000Y567000D01*
X121500Y567700D01*
X329000Y352000D02*
X331000Y350000D01*
X329000Y513000D02*
X329000Y606000D01*
X329000Y513000D02*
X329000Y352000D01*
X329000Y606000D02*
X311000Y624000D01*
X274000Y624000D01*
X274000Y627000D01*
X331000Y350000D02*
X331246Y350000D01*
X274000Y627000D02*
X273900Y627300D01*
X293000Y513000D02*
X329000Y513000D01*
D19*
X55000Y356000D03*
X70000Y479000D03*
X293000Y513000D03*
D18*
X39000Y140000D02*
X39000Y120000D01*
X39000Y140000D02*
X39195Y140000D01*
X39000Y120000D02*
X38754Y120000D01*
X84000Y120000D02*
X84000Y140000D01*
X84195Y140000D01*
X84000Y120000D02*
X83754Y120000D01*
X56000Y157000D02*
X41000Y142000D01*
X56000Y157000D02*
X82000Y157000D01*
X82000Y155000D02*
X82000Y142000D01*
X82000Y155000D02*
X82000Y157000D01*
X41000Y142000D02*
X39195Y140000D01*
X82000Y142000D02*
X84195Y140000D01*
X33000Y396000D02*
X37000Y400000D01*
X33000Y396000D02*
X33000Y306000D01*
X5000Y278000D01*
X5000Y110000D01*
X12000Y103000D01*
X37000Y103000D01*
X37000Y118000D01*
X37000Y400000D02*
X37700Y400000D01*
X38754Y120000D02*
X37000Y118000D01*
X264000Y120000D02*
X264000Y140000D01*
X264195Y140000D01*
X264000Y120000D02*
X263754Y120000D01*
X309000Y120000D02*
X309000Y140000D01*
X309195Y140000D01*
X309000Y120000D02*
X308754Y120000D01*
X281000Y103000D02*
X266000Y118000D01*
X288000Y103000D02*
X307000Y103000D01*
X288000Y103000D02*
X281000Y103000D01*
X307000Y103000D02*
X307000Y118000D01*
X266000Y118000D02*
X263754Y120000D01*
X307000Y118000D02*
X308754Y120000D01*
X349000Y320000D02*
X349000Y350000D01*
X349000Y320000D02*
X349195Y320000D01*
X349000Y350000D02*
X348754Y350000D01*
X349000Y318000D02*
X349000Y290000D01*
X348754Y290000D01*
X349000Y318000D02*
X349195Y320000D01*
X349000Y230000D02*
X349000Y200000D01*
X349195Y200000D01*
X349000Y230000D02*
X348754Y230000D01*
X350000Y232000D02*
X350000Y260000D01*
X349195Y260000D01*
X350000Y232000D02*
X348754Y230000D01*
X349000Y198000D02*
X349000Y170000D01*
X348754Y170000D01*
X349000Y198000D02*
X349195Y200000D01*
X349000Y262000D02*
X349000Y288000D01*
X348754Y290000D01*
X349000Y262000D02*
X349195Y260000D01*
X347000Y141000D02*
X312000Y141000D01*
X347000Y141000D02*
X347000Y168000D01*
X312000Y141000D02*
X309195Y140000D01*
X347000Y168000D02*
X348754Y170000D01*
X219000Y140000D02*
X219000Y120000D01*
X219000Y140000D02*
X219195Y140000D01*
X219000Y120000D02*
X218754Y120000D01*
X129000Y120000D02*
X129000Y140000D01*
X129195Y140000D01*
X129000Y120000D02*
X128754Y120000D01*
X174000Y120000D02*
X174000Y140000D01*
X174195Y140000D01*
X174000Y120000D02*
X173754Y120000D01*
X146000Y103000D02*
X131000Y118000D01*
X146000Y103000D02*
X172000Y103000D01*
X172000Y118000D01*
X131000Y118000D02*
X128754Y120000D01*
X172000Y118000D02*
X173754Y120000D01*
X217000Y118000D02*
X217000Y109000D01*
X211000Y103000D01*
X172000Y103000D01*
X217000Y118000D02*
X218754Y120000D01*
X233700Y164600D02*
X228600Y169700D01*
X233700Y164600D02*
X233700Y156072D01*
X233700Y174800D02*
X233700Y219900D01*
X233700Y174800D02*
X228600Y169700D01*
X233700Y219900D02*
X228900Y224700D01*
X233700Y156072D02*
X219195Y140000D01*
X247000Y541000D02*
X273000Y567000D01*
X247000Y541000D02*
X235000Y541000D01*
X235000Y525000D01*
X224000Y514000D01*
X182000Y514000D02*
X138000Y470000D01*
X138000Y155000D02*
X138000Y149000D01*
X138000Y155000D02*
X138000Y470000D01*
X138000Y149000D02*
X131000Y142000D01*
X273000Y567000D02*
X273900Y567700D01*
X131000Y142000D02*
X129195Y140000D01*
X288000Y103000D02*
X288000Y75000D01*
X275000Y62000D01*
X213000Y62000D01*
X213000Y101000D01*
X211000Y103000D01*
X83754Y120000D02*
X83000Y118000D01*
X128000Y117000D02*
X128754Y120000D01*
D19*
X228900Y224700D03*
X228600Y169700D03*
X224000Y514000D03*
X182000Y514000D03*
D20*
X138000Y155000D02*
X82000Y155000D01*
D18*
X331000Y290000D02*
X331000Y320000D01*
X330805Y320000D01*
X331000Y290000D02*
X331246Y290000D01*
X329000Y288000D02*
X295000Y288000D01*
X295000Y255000D01*
X329000Y288000D02*
X331246Y290000D01*
X96000Y652000D02*
X64000Y652000D01*
X64000Y643000D01*
X177000Y415000D02*
X180400Y411600D01*
X180400Y320400D01*
X96000Y652000D02*
X96100Y652700D01*
D19*
X295000Y255000D03*
X64000Y643000D03*
X177000Y415000D03*
X180400Y320400D03*
D18*
X201000Y140000D02*
X201000Y120000D01*
X201000Y140000D02*
X200805Y140000D01*
X201000Y120000D02*
X201246Y120000D01*
X200805Y152505D02*
X212000Y163700D01*
X200805Y152505D02*
X200805Y140000D01*
X212000Y163700D02*
X212000Y340000D01*
X224000Y653000D02*
X241000Y670000D01*
X305000Y670000D01*
X305000Y641000D01*
X224000Y653000D02*
X223100Y652700D01*
D19*
X212000Y340000D03*
X305000Y641000D03*
D18*
X331000Y260000D02*
X331000Y230000D01*
X331000Y260000D02*
X330805Y260000D01*
X331000Y230000D02*
X331246Y230000D01*
X328000Y261000D02*
X312000Y261000D01*
X312000Y271000D01*
X328000Y261000D02*
X330805Y260000D01*
X121000Y653000D02*
X104000Y670000D01*
X48000Y670000D01*
X48000Y650000D01*
X47000Y649000D01*
X47000Y636000D01*
X64000Y619000D01*
X229000Y492000D02*
X229000Y381000D01*
X121500Y652700D02*
X121000Y653000D01*
D19*
X312000Y271000D03*
X64000Y619000D03*
X229000Y492000D03*
X229000Y381000D03*
D18*
X156000Y140000D02*
X156000Y120000D01*
X156000Y140000D02*
X155805Y140000D01*
X156000Y120000D02*
X156246Y120000D01*
X178200Y257500D02*
X163900Y271800D01*
X163900Y336400D01*
X178200Y257500D02*
X178200Y169895D01*
X155805Y147500D01*
X155805Y140000D01*
X194000Y606000D02*
X173000Y627000D01*
X194000Y606000D02*
X305000Y606000D01*
X173000Y627000D02*
X172300Y627300D01*
D19*
X163900Y336400D03*
X305000Y606000D03*
D18*
X331000Y200000D02*
X331000Y170000D01*
X331000Y200000D02*
X330805Y200000D01*
X331000Y170000D02*
X331246Y170000D01*
X328000Y201000D02*
X314000Y215000D01*
X328000Y201000D02*
X330805Y200000D01*
X146000Y653000D02*
X123000Y676000D01*
X177000Y464000D02*
X155000Y442000D01*
X177000Y464000D02*
X177000Y468000D01*
X211000Y468000D02*
X212000Y467000D01*
X212000Y364000D01*
X229000Y347000D01*
X229000Y324000D01*
X146900Y652700D02*
X146000Y653000D01*
D19*
X314000Y215000D03*
X123000Y676000D03*
X155000Y442000D03*
X177000Y468000D03*
X211000Y468000D03*
X229000Y324000D03*
D18*
X111000Y140000D02*
X111000Y120000D01*
X111000Y140000D02*
X110805Y140000D01*
X111000Y120000D02*
X111246Y120000D01*
X285000Y492000D02*
X276000Y501000D01*
X276000Y545000D01*
X292000Y561000D01*
X292000Y575000D01*
X273000Y594000D01*
X147000Y594000D01*
X147000Y627000D01*
X146900Y627300D01*
D19*
X285000Y492000D03*
D18*
X111246Y111600D02*
X146046Y76800D01*
X111246Y111600D02*
X111246Y120000D01*
X146046Y76800D02*
X193800Y76800D01*
D19*
X193800Y76800D03*
X195300Y172100D03*
D18*
X198300Y216000D02*
X195500Y218800D01*
X198300Y216000D02*
X198300Y175100D01*
X195300Y172100D01*
D19*
X195500Y218800D03*
D18*
X21000Y140000D02*
X21000Y120000D01*
X21000Y140000D02*
X20805Y140000D01*
X21000Y120000D02*
X21246Y120000D01*
X23000Y142000D02*
X25000Y144000D01*
X25000Y151000D01*
X43000Y169000D01*
X60000Y169000D01*
X60000Y198000D01*
X64000Y202000D01*
X64000Y336000D01*
X23000Y142000D02*
X20805Y140000D01*
X50000Y581000D02*
X96000Y627000D01*
X50000Y581000D02*
X50000Y451000D01*
X96000Y627000D02*
X96100Y627300D01*
D19*
X64000Y336000D03*
X50000Y451000D03*
D18*
X246000Y140000D02*
X246000Y120000D01*
X246000Y140000D02*
X245805Y140000D01*
X246000Y120000D02*
X246246Y120000D01*
X244000Y118000D02*
X241000Y115000D01*
X241000Y99000D01*
X244000Y118000D02*
X246246Y120000D01*
X197700Y652700D02*
X227000Y682000D01*
X317000Y682000D01*
X317000Y653000D01*
X346000Y624000D01*
X346000Y371000D01*
D19*
X241000Y99000D03*
X346000Y371000D03*
D18*
X66000Y140000D02*
X66000Y120000D01*
X66000Y140000D02*
X65805Y140000D01*
X66000Y120000D02*
X66246Y120000D01*
X66000Y118000D02*
X66000Y99000D01*
X155400Y217800D02*
X156200Y218600D01*
X155400Y217800D02*
X155400Y170500D01*
X66246Y120000D02*
X66000Y118000D01*
X67000Y573000D02*
X121000Y627000D01*
X67000Y573000D02*
X67000Y500000D01*
X121000Y627000D02*
X121500Y627300D01*
D19*
X66000Y99000D03*
X155400Y170500D03*
X156200Y218600D03*
X67000Y500000D03*
D18*
X291000Y140000D02*
X291000Y120000D01*
X291000Y140000D02*
X290805Y140000D01*
X291000Y120000D02*
X291246Y120000D01*
X293000Y142000D02*
X295000Y144000D01*
X295000Y172000D01*
X293000Y142000D02*
X290805Y140000D01*
X173000Y653000D02*
X196000Y676000D01*
X312000Y361000D02*
X306000Y355000D01*
X306000Y324000D01*
X172300Y652700D02*
X173000Y653000D01*
D19*
X295000Y172000D03*
X196000Y676000D03*
X312000Y361000D03*
X306000Y324000D03*
D18*
X82000Y192800D02*
X76900Y187700D01*
X82000Y192800D02*
X82000Y467000D01*
X172000Y557000D01*
X172000Y567000D01*
X172300Y567700D01*
D19*
X76900Y187700D03*
D18*
X195000Y282000D02*
X197000Y284000D01*
X197000Y331000D01*
X194000Y334000D01*
X194000Y502000D01*
X207000Y515000D01*
X207000Y522000D01*
X223000Y538000D01*
X223000Y567000D01*
X223100Y567700D01*
D19*
X195000Y282000D03*
D18*
X35000Y260000D02*
X18000Y260000D01*
X18000Y187000D01*
X22000Y183000D01*
D19*
X22000Y183000D03*
D18*
X35000Y280000D02*
X52000Y280000D01*
X52000Y207000D01*
X43000Y198000D01*
X43000Y186000D01*
D19*
X43000Y186000D03*
D18*
X261000Y476000D02*
X252000Y485000D01*
X252000Y524000D01*
X198000Y537000D02*
X198000Y567000D01*
X197700Y567700D01*
D19*
X261000Y476000D03*
X252000Y524000D03*
X198000Y537000D03*
D18*
X13000Y325000D02*
X16000Y322000D01*
X13000Y325000D02*
X13000Y400000D01*
X12300Y400000D01*
D19*
X16000Y322000D03*
M02*
