G04 EAGLE Gerber RS-274X export*
G75*
%MOMM*%
%FSLAX34Y34*%
%LPD*%
%INSolderpaste Bottom*%
%IPPOS*%
%AMOC8*
5,1,8,0,0,1.08239X$1,22.5*%
G01*
G04 Define Apertures*
%ADD10R,1.164600X1.465300*%
%ADD11R,1.031200X1.420200*%
D10*
X331246Y350000D03*
X348754Y350000D03*
D11*
X349195Y260000D03*
X330805Y260000D03*
D10*
X348754Y230000D03*
X331246Y230000D03*
D11*
X349195Y200000D03*
X330805Y200000D03*
D10*
X348754Y170000D03*
X331246Y170000D03*
D11*
X309195Y140000D03*
X290805Y140000D03*
D10*
X308754Y120000D03*
X291246Y120000D03*
D11*
X349195Y320000D03*
X330805Y320000D03*
D10*
X348754Y290000D03*
X331246Y290000D03*
D11*
X264195Y140000D03*
X245805Y140000D03*
D10*
X263754Y120000D03*
X246246Y120000D03*
D11*
X200805Y140000D03*
X219195Y140000D03*
D10*
X201246Y120000D03*
X218754Y120000D03*
D11*
X155805Y140000D03*
X174195Y140000D03*
D10*
X156246Y120000D03*
X173754Y120000D03*
D11*
X110805Y140000D03*
X129195Y140000D03*
D10*
X111246Y120000D03*
X128754Y120000D03*
D11*
X65805Y140000D03*
X84195Y140000D03*
D10*
X66246Y120000D03*
X83754Y120000D03*
D11*
X20805Y140000D03*
X39195Y140000D03*
D10*
X21246Y120000D03*
X38754Y120000D03*
M02*
