G04 EAGLE Gerber RS-274X export*
G75*
%MOMM*%
%FSLAX34Y34*%
%LPD*%
%INSoldermask Bottom*%
%IPPOS*%
%AMOC8*
5,1,8,0,0,1.08239X$1,22.5*%
G01*
G04 Define Apertures*
%ADD10C,2.400000*%
%ADD11R,1.564600X1.865300*%
%ADD12R,1.431200X1.820200*%
%ADD13P,2.22539X8X22.5*%
%ADD14P,2.22539X8X202.5*%
%ADD15R,1.840000X1.840000*%
%ADD16C,1.840000*%
%ADD17C,2.021000*%
%ADD18C,1.852800*%
%ADD19C,1.900000*%
D10*
X105000Y85000D03*
X265000Y85000D03*
X30000Y685000D03*
X340000Y60000D03*
X340000Y685000D03*
X30000Y60000D03*
D11*
X331246Y350000D03*
X348754Y350000D03*
D12*
X349195Y260000D03*
X330805Y260000D03*
D11*
X348754Y230000D03*
X331246Y230000D03*
D12*
X349195Y200000D03*
X330805Y200000D03*
D11*
X348754Y170000D03*
X331246Y170000D03*
D12*
X309195Y140000D03*
X290805Y140000D03*
D11*
X308754Y120000D03*
X291246Y120000D03*
D12*
X349195Y320000D03*
X330805Y320000D03*
D11*
X348754Y290000D03*
X331246Y290000D03*
D12*
X264195Y140000D03*
X245805Y140000D03*
D11*
X263754Y120000D03*
X246246Y120000D03*
D12*
X200805Y140000D03*
X219195Y140000D03*
D11*
X201246Y120000D03*
X218754Y120000D03*
D12*
X155805Y140000D03*
X174195Y140000D03*
D11*
X156246Y120000D03*
X173754Y120000D03*
D12*
X110805Y140000D03*
X129195Y140000D03*
D11*
X111246Y120000D03*
X128754Y120000D03*
D12*
X65805Y140000D03*
X84195Y140000D03*
D11*
X66246Y120000D03*
X83754Y120000D03*
D12*
X20805Y140000D03*
X39195Y140000D03*
D11*
X21246Y120000D03*
X38754Y120000D03*
D13*
X96100Y652700D03*
X121500Y652700D03*
X146900Y652700D03*
X172300Y652700D03*
X197700Y652700D03*
X223100Y652700D03*
X248500Y652700D03*
X273900Y652700D03*
X96100Y627300D03*
X121500Y627300D03*
X146900Y627300D03*
X172300Y627300D03*
X197700Y627300D03*
X223100Y627300D03*
X248500Y627300D03*
X273900Y627300D03*
D14*
X273900Y567700D03*
X248500Y567700D03*
X223100Y567700D03*
X197700Y567700D03*
X172300Y567700D03*
X146900Y567700D03*
X121500Y567700D03*
X96100Y567700D03*
D15*
X35000Y280000D03*
D16*
X35000Y260000D03*
X35000Y240000D03*
X35000Y220000D03*
D17*
X12300Y400000D03*
X37700Y400000D03*
D18*
X253936Y449700D02*
X268464Y449700D01*
X268464Y424300D02*
X253936Y424300D01*
X253936Y398900D02*
X268464Y398900D01*
X268464Y373500D02*
X253936Y373500D01*
X253936Y348100D02*
X268464Y348100D01*
X268464Y322700D02*
X253936Y322700D01*
X253936Y297300D02*
X268464Y297300D01*
X268464Y271900D02*
X253936Y271900D01*
X253936Y246500D02*
X268464Y246500D01*
X268464Y221100D02*
X253936Y221100D01*
X253936Y195700D02*
X268464Y195700D01*
X268464Y170300D02*
X253936Y170300D01*
X116064Y170300D02*
X101536Y170300D01*
X101536Y195700D02*
X116064Y195700D01*
X116064Y221100D02*
X101536Y221100D01*
X101536Y246500D02*
X116064Y246500D01*
X116064Y271900D02*
X101536Y271900D01*
X101536Y297300D02*
X116064Y297300D01*
X116064Y322700D02*
X101536Y322700D01*
X101536Y348100D02*
X116064Y348100D01*
X116064Y373500D02*
X101536Y373500D01*
X101536Y398900D02*
X116064Y398900D01*
X116064Y424300D02*
X101536Y424300D01*
X101536Y449700D02*
X116064Y449700D01*
D19*
X193800Y76800D03*
X195300Y172100D03*
X195500Y218800D03*
M02*
