G04 EAGLE Gerber RS-274X export*
G75*
%MOMM*%
%FSLAX34Y34*%
%LPD*%
%INSoldermask Top*%
%IPPOS*%
%AMOC8*
5,1,8,0,0,1.08239X$1,22.5*%
G01*
G04 Define Apertures*
%ADD10C,2.400000*%
%ADD11P,2.22539X8X22.5*%
%ADD12P,2.22539X8X202.5*%
%ADD13R,1.840000X1.840000*%
%ADD14C,1.840000*%
%ADD15R,1.431200X1.820200*%
%ADD16C,2.021000*%
%ADD17C,1.852800*%
%ADD18C,1.900000*%
D10*
X105000Y85000D03*
X265000Y85000D03*
X30000Y685000D03*
X340000Y60000D03*
X340000Y685000D03*
X30000Y60000D03*
D11*
X96100Y652700D03*
X121500Y652700D03*
X146900Y652700D03*
X172300Y652700D03*
X197700Y652700D03*
X223100Y652700D03*
X248500Y652700D03*
X273900Y652700D03*
X96100Y627300D03*
X121500Y627300D03*
X146900Y627300D03*
X172300Y627300D03*
X197700Y627300D03*
X223100Y627300D03*
X248500Y627300D03*
X273900Y627300D03*
D12*
X273900Y567700D03*
X248500Y567700D03*
X223100Y567700D03*
X197700Y567700D03*
X172300Y567700D03*
X146900Y567700D03*
X121500Y567700D03*
X96100Y567700D03*
D13*
X35000Y280000D03*
D14*
X35000Y260000D03*
X35000Y240000D03*
X35000Y220000D03*
D15*
X34595Y342900D03*
X16205Y342900D03*
D16*
X12300Y400000D03*
X37700Y400000D03*
D17*
X253936Y449700D02*
X268464Y449700D01*
X268464Y424300D02*
X253936Y424300D01*
X253936Y398900D02*
X268464Y398900D01*
X268464Y373500D02*
X253936Y373500D01*
X253936Y348100D02*
X268464Y348100D01*
X268464Y322700D02*
X253936Y322700D01*
X253936Y297300D02*
X268464Y297300D01*
X268464Y271900D02*
X253936Y271900D01*
X253936Y246500D02*
X268464Y246500D01*
X268464Y221100D02*
X253936Y221100D01*
X253936Y195700D02*
X268464Y195700D01*
X268464Y170300D02*
X253936Y170300D01*
X116064Y170300D02*
X101536Y170300D01*
X101536Y195700D02*
X116064Y195700D01*
X116064Y221100D02*
X101536Y221100D01*
X101536Y246500D02*
X116064Y246500D01*
X116064Y271900D02*
X101536Y271900D01*
X101536Y297300D02*
X116064Y297300D01*
X116064Y322700D02*
X101536Y322700D01*
X101536Y348100D02*
X116064Y348100D01*
X116064Y373500D02*
X101536Y373500D01*
X101536Y398900D02*
X116064Y398900D01*
X116064Y424300D02*
X101536Y424300D01*
X101536Y449700D02*
X116064Y449700D01*
D18*
X193800Y76800D03*
X195300Y172100D03*
X195500Y218800D03*
M02*
