M48
;GenerationSoftware,Autodesk,EAGLE,9.7.0*%
;CreationDate,2026-07-01T08:54:46Z*%
FMAT,2
ICI,OFF
METRIC,TZ,000.000
T6C0.700
T5C0.800
T4C0.813
T3C0.981
T2C1.016
T1C2.000
%
G90
M71
T1
X3000Y6000
X10500Y8500
X26500Y8500
X3000Y68500
X34000Y6000
X34000Y68500
T2
X27390Y56770
X27390Y62730
X24850Y62730
X22310Y62730
X17230Y62730
X14690Y62730
X12150Y62730
X9610Y62730
X27390Y65270
X24850Y65270
X22310Y65270
X19770Y65270
X19770Y62730
X17230Y65270
X14690Y65270
X12150Y65270
X9610Y65270
X9610Y56770
X12150Y56770
X14690Y56770
X17230Y56770
X19770Y56770
X22310Y56770
X24850Y56770
T3
X3770Y40000
X1230Y40000
T4
X26120Y44970
X26120Y42430
X26120Y39890
X26120Y37350
X26120Y34810
X26120Y32270
X26120Y29730
X26120Y27190
X26120Y24650
X26120Y22110
X26120Y17030
X10880Y17030
X10880Y19570
X10880Y22110
X10880Y24650
X10880Y27190
X10880Y29730
X10880Y32270
X10880Y34810
X10880Y37350
X10880Y39890
X10880Y42430
X10880Y44970
X26120Y19570
T5
X3500Y26000
X3500Y24000
X3500Y28000
X3500Y22000
T6
X7000Y47900
X29300Y51300
X22890Y22470
X22860Y16970
X22400Y51400
X18200Y51400
X29500Y25500
X6400Y64300
X17700Y41500
X18040Y32040
X21200Y34000
X30500Y64100
X6400Y61900
X22900Y49200
X22900Y38100
X16390Y33640
X30500Y60600
X31400Y21500
X12300Y67600
X15500Y44200
X17700Y46800
X28500Y49200
X1600Y32200
X22900Y32400
X21100Y46800
X19800Y53700
X25200Y52400
X26100Y47600
X4300Y18600
X2200Y18300
X19500Y28200
X30600Y32400
X31200Y36100
X19600Y67600
X29500Y17200
X31200Y27100
X5500Y35600
X7690Y18770
X15620Y21860
X15540Y17050
X6600Y9900
X34600Y37100
X6700Y50000
X5000Y45100
X6400Y33600
X19550Y21880
X19530Y17210
X19380Y7680
X24100Y9900
M30